<?xml version="1.0" encoding="UTF-8" standalone="no"?>
<!-- Created with Inkscape (http://www.inkscape.org/) -->

<svg
   width="597.2793mm"
   height="88.53363mm"
   viewBox="0 0 597.27929 88.53363"
   version="1.1"
   id="svg5"
   xml:space="preserve"
   inkscape:version="1.2.2 (732a01da63, 2022-12-09)"
   sodipodi:docname="logos_l.svg"
   xmlns:inkscape="http://www.inkscape.org/namespaces/inkscape"
   xmlns:sodipodi="http://sodipodi.sourceforge.net/DTD/sodipodi-0.dtd"
   xmlns="http://www.w3.org/2000/svg"
   xmlns:svg="http://www.w3.org/2000/svg"><sodipodi:namedview
     id="namedview7"
     pagecolor="#505050"
     bordercolor="#eeeeee"
     borderopacity="1"
     inkscape:showpageshadow="0"
     inkscape:pageopacity="0"
     inkscape:pagecheckerboard="0"
     inkscape:deskcolor="#505050"
     inkscape:document-units="mm"
     showgrid="false"
     showguides="true"
     inkscape:zoom="0.23040324"
     inkscape:cx="1755.6177"
     inkscape:cy="-583.75915"
     inkscape:window-width="1920"
     inkscape:window-height="991"
     inkscape:window-x="-9"
     inkscape:window-y="-9"
     inkscape:window-maximized="1"
     inkscape:current-layer="layer1"><sodipodi:guide
       position="138.58908,-0.0013741923"
       orientation="0,-1"
       id="guide3852"
       inkscape:locked="false" /><sodipodi:guide
       position="40.760701,88.183111"
       orientation="0,-1"
       id="guide3908"
       inkscape:locked="false" /></sodipodi:namedview><defs
     id="defs2"><clipPath
       id="clipPath22"
       clipPathUnits="userSpaceOnUse"><path
         inkscape:connector-curvature="0"
         id="path20"
         d="M 0,0 H 3313 V 1162 H 0 Z" /></clipPath><style
       id="style3420">
      .cls-1 {
        fill: #f5b1b5;
      }

      .cls-2 {
        fill: #fff;
      }

      .cls-3 {
        fill: #e53212;
      }

      .cls-4 {
        fill: #a71815;
      }

      .cls-5 {
        fill: #1d1d1b;
      }
    </style><clipPath
       clipPathUnits="userSpaceOnUse"
       id="clipPath10421"><path
         d="M 0,369.326 H 1298.948 V 0 H 0 Z"
         id="path10419" /></clipPath></defs><g
     inkscape:label="Calque 1"
     inkscape:groupmode="layer"
     id="layer1"
     transform="translate(507.02553,-228.69186)"><g
       transform="matrix(0.07432488,0,0,0.07432488,-507.48136,228.04463)"
       inkscape:label="LOGO_UMONS"
       id="g10"><flowRoot
         style="font-style:normal;font-weight:normal;font-size:40px;line-height:1.25;font-family:sans-serif;letter-spacing:0px;word-spacing:0px;fill:#000000;fill-opacity:1;stroke:none"
         id="flowRoot903"
         xml:space="preserve"><flowRegion
           id="flowRegion905"><rect
             y="1509.912"
             x="1537.1125"
             height="122.94834"
             width="441.74744"
             id="rect907" /></flowRegion><flowPara
           id="flowPara909" /></flowRoot><g
         id="g14"><g
           id="g16"><g
             id="g18"
             clip-path="url(#clipPath22)"><g
               id="g24" /><g
               id="g26"><path
                 d="m 546.039,437.06798 c 0,163.35874 -96.59,249.59389 -263.711,249.59389 -172.594,0 -274.883,-77.12457 -274.883,-249.59389 V 23.266 h 88.93 v 413.80198 c 0,114.41719 67.461,176.9211 185.734,176.9211 112.582,0 174.567,-62.71576 174.567,-176.9211 V 23.266 h 89.144 v 413.80198 z"
                 style="fill:#939598;fill-opacity:1;fill-rule:nonzero;stroke:none;stroke-width:0.999998"
                 id="path30"
                 inkscape:connector-curvature="0" /><path
                 d="m 680.965,23.266 h 93.961 L 1006.66,610.703 1237.52,23.266 h 93.742 v 670.011 h -63.739 V 114.164 h -1.968 L 1036.668,693.277 H 976.652 L 746.672,114.164 h -1.75 v 579.113 h -63.957 z"
                 style="fill:#c40d42;fill-opacity:1;fill-rule:nonzero;stroke:none"
                 id="path32"
                 inkscape:connector-curvature="0" /><path
                 d="m 1744.133,18.654253 c 210.269,0 315.183,159.300557 315.183,334.994237 0,175.4845 -105.132,334.99423 -315.183,334.99423 -211.145,0 -316.278,-159.30055 -316.278,-334.99423 0,-175.4845 105.133,-334.994237 316.278,-334.994237 m 0,617.658127 c 176.32,0 251.445,-142.2761 251.445,-282.66389 0,-140.38683 -75.125,-282.66773 -251.445,-282.66773 -177.414,0 -252.539,142.2809 -252.539,282.66773 0.219,140.59696 75.344,282.66389 252.539,282.66389"
                 style="fill:#c40d42;fill-opacity:1;fill-rule:nonzero;stroke:none;stroke-width:0.999994"
                 id="path34"
                 inkscape:connector-curvature="0" /><path
                 d="m 2157.004,23.266 h 71.402 l 390.313,566.632 h 1.972 V 23.266 h 63.739 v 670.011 h -71.407 L 2222.715,126.43 h -1.973 v 566.847 h -63.738 z"
                 style="fill:#c40d42;fill-opacity:1;fill-rule:nonzero;stroke:none"
                 id="path36"
                 inkscape:connector-curvature="0" /><path
                 d="m 2847.605,467.81681 c -2.847,134.29667 96.59,175.43979 218.59,175.43979 70.309,0 177.414,-37.51582 177.414,-132.37742 0,-73.97081 -76.004,-103.17607 -137.988,-117.88478 l -149.16,-35.5995 c -78.848,-19.1837 -151.129,-55.63869 -151.129,-157.10767 0,-63.94927 42.273,-183.53723 230.856,-183.53723 132.296,0 248.601,69.491919 247.722,202.72483 h -63.734 c -3.727,-99.55266 -88.27,-149.861842 -183.11,-149.861842 -87.175,0 -167.996,32.832552 -167.996,129.609502 0,61.18232 46.871,86.76028 101.41,99.54877 l 163.176,39.22679 c 94.84,24.72637 173.692,64.80086 173.692,171.60033 0,44.76556 -18.836,186.31196 -256.266,186.31196 -158.574,0 -274.879,-69.49581 -267.434,-228.30668 h 63.957 z"
                 style="fill:#c40d42;fill-opacity:1;fill-rule:nonzero;stroke:none;stroke-width:1"
                 id="path38"
                 inkscape:connector-curvature="0" /><path
                 d="m 6.133,807.832 h 538.594 v 56.727 H 6.133 Z"
                 style="fill:#c40d42;fill-opacity:1;fill-rule:nonzero;stroke:none"
                 id="path40"
                 inkscape:connector-curvature="0" /><path
                 d="m 861.227,1051.391 c 0,56.73 -32.418,86.519 -88.489,86.519 -57.824,0 -92.215,-26.722 -92.215,-86.519 V 907.926 h 29.79 v 143.465 c 0,39.644 22.562,61.328 62.207,61.328 37.671,0 58.48,-21.684 58.48,-61.328 V 907.926 h 29.785 v 143.465 z"
                 style="fill:#939598;fill-opacity:1;fill-rule:nonzero;stroke:none"
                 id="path42"
                 inkscape:connector-curvature="0" /><path
                 d="m 901.309,969.914 h 25.187 v 25.844 h 0.656 c 11.391,-20.149 29.571,-29.567 52.786,-29.567 42.71,0 56.074,24.532 56.074,59.356 v 106.887 h -26.723 v -110.172 c 0,-19.934 -12.703,-32.637 -33.074,-32.637 -32.414,0 -48.188,21.684 -48.188,51.035 v 91.774 h -26.718 z"
                 style="fill:#939598;fill-opacity:1;fill-rule:nonzero;stroke:none"
                 id="path44"
                 inkscape:connector-curvature="0" /><path
                 d="m 1101.063,940.563 h -26.723 v -32.637 h 26.723 z m -26.723,29.351 h 26.723 v 162.52 h -26.723 z"
                 style="fill:#939598;fill-opacity:1;fill-rule:nonzero;stroke:none"
                 id="path46"
                 inkscape:connector-curvature="0" /><path
                 d="m 1212.328,1132.434 h -28.691 l -60.235,-162.52 h 29.789 l 45.559,135.578 h 0.656 l 44.465,-135.578 h 28.035 z"
                 style="fill:#939598;fill-opacity:1;fill-rule:nonzero;stroke:none"
                 id="path48"
                 inkscape:connector-curvature="0" /><path
                 d="m 1431.578,1080.961 c -7.226,35.922 -33.074,55.414 -69.433,55.414 -51.911,0 -76.442,-35.922 -77.973,-85.422 0,-48.844 31.976,-84.543 76.441,-84.543 57.606,0 75.125,53.879 73.594,93.086 h -121.781 c -0.875,28.254 15.113,53.442 50.597,53.442 21.903,0 37.454,-10.731 42.051,-31.758 h 26.504 z m -25.844,-45.34 c -1.316,-25.406 -20.371,-45.996 -46.875,-45.996 -28.035,0 -44.679,21.027 -46.652,45.996 z"
                 style="fill:#939598;fill-opacity:1;fill-rule:nonzero;stroke:none"
                 id="path50"
                 inkscape:connector-curvature="0" /><path
                 d="m 1457.422,969.914 h 25.191 v 34.387 h 0.657 c 12.921,-26.067 30.882,-38.988 59.793,-38.11 v 28.254 c -43.149,0 -58.918,24.532 -58.918,65.707 v 72.282 h -26.723 z"
                 style="fill:#939598;fill-opacity:1;fill-rule:nonzero;stroke:none"
                 id="path52"
                 inkscape:connector-curvature="0" /><path
                 d="m 1575.918,1081.18 c 0.875,23.875 21.684,31.539 43.805,31.539 16.648,0 39.425,-3.723 39.425,-24.09 0,-20.809 -26.5,-24.313 -53.222,-30.227 -26.504,-5.914 -53.223,-14.675 -53.223,-45.996 0,-32.636 32.414,-46.215 60.668,-46.215 35.922,0 64.395,11.387 66.586,51.032 h -26.723 c -1.968,-20.809 -20.148,-27.379 -37.671,-27.379 -15.989,0 -34.606,4.383 -34.606,20.808 0,19.274 28.254,22.34 53.223,28.254 26.722,5.914 53.226,14.676 53.226,46.215 0,38.77 -36.14,51.254 -69.215,51.254 -36.578,0 -67.242,-14.676 -68.777,-54.977 h 26.504 z"
                 style="fill:#939598;fill-opacity:1;fill-rule:nonzero;stroke:none"
                 id="path54"
                 inkscape:connector-curvature="0" /><path
                 d="m 1741.723,940.563 h -26.719 v -32.637 h 26.719 z m -26.719,29.351 h 26.719 v 162.52 h -26.719 z"
                 style="fill:#939598;fill-opacity:1;fill-rule:nonzero;stroke:none"
                 id="path56"
                 inkscape:connector-curvature="0" /><path
                 d="m 1816.852,969.914 h 32.418 v 23.652 h -32.418 v 100.977 c 0,12.266 3.503,14.453 20.148,14.453 h 12.266 v 23.656 h -20.368 c -27.597,0 -38.769,-5.695 -38.769,-35.484 V 993.789 h -27.598 v -23.656 h 27.598 v -48.844 h 26.723 z"
                 style="fill:#939598;fill-opacity:1;fill-rule:nonzero;stroke:none"
                 id="path58"
                 inkscape:connector-curvature="0" /><path
                 d="m 2562.43,907.926 h 40.738 l 70.965,188.804 70.965,-188.804 h 40.961 v 224.508 h -28.254 V 945.602 h -0.66 l -70.309,186.832 h -25.406 l -70.09,-186.832 h -0.656 v 186.832 h -28.254 z"
                 style="fill:#939598;fill-opacity:1;fill-rule:nonzero;stroke:none"
                 id="path66"
                 inkscape:connector-curvature="0" /><path
                 d="m 2897.98,966.191 c 51.473,0 78.852,37.454 78.852,85.2 0,47.531 -27.379,84.984 -78.852,84.984 -51.691,0 -79.07,-37.453 -79.07,-84.984 0.223,-47.965 27.602,-85.2 79.07,-85.2 m 0,146.528 c 28.036,0 50.598,-21.903 50.598,-61.328 0,-39.645 -22.781,-61.547 -50.598,-61.547 -28.035,0 -50.593,22.121 -50.593,61.547 0,39.207 22.558,61.328 50.593,61.328"
                 style="fill:#939598;fill-opacity:1;fill-rule:nonzero;stroke:none"
                 id="path68"
                 inkscape:connector-curvature="0" /><path
                 d="m 3004.867,969.914 h 25.192 v 25.844 h 0.656 c 11.387,-20.149 29.566,-29.567 52.785,-29.567 42.711,0 56.07,24.532 56.07,59.356 v 106.887 h -26.718 v -110.172 c 0,-19.934 -12.707,-32.637 -33.075,-32.637 -32.418,0 -48.187,21.684 -48.187,51.035 v 91.774 h -26.723 z"
                 style="fill:#939598;fill-opacity:1;fill-rule:nonzero;stroke:none"
                 id="path70"
                 inkscape:connector-curvature="0" /><path
                 d="m 3190.605,1081.18 c 0.875,23.875 21.684,31.539 43.805,31.539 16.649,0 39.426,-3.723 39.426,-24.09 0,-20.809 -26.504,-24.313 -53.223,-30.227 -26.504,-5.914 -53.222,-14.675 -53.222,-45.996 0,-32.636 32.414,-46.215 60.668,-46.215 35.921,0 64.394,11.387 66.586,51.032 h -26.723 c -1.969,-20.809 -20.149,-27.379 -37.672,-27.379 -15.988,0 -34.605,4.383 -34.605,20.808 0,19.274 28.253,22.34 53.222,28.254 26.723,5.914 53.223,14.676 53.223,46.215 0,38.77 -36.137,51.254 -69.211,51.254 -36.578,0 -67.242,-14.676 -68.996,-54.977 h 26.722 z"
                 style="fill:#939598;fill-opacity:1;fill-rule:nonzero;stroke:none"
                 id="path72"
                 inkscape:connector-curvature="0" /><path
                 d="m 2194.676,966.19098 c 51.4731,0 78.8521,37.45402 78.8521,85.20002 0,47.531 -27.379,84.984 -78.8521,84.984 -51.6909,0 -79.0699,-37.453 -79.0699,-84.984 0.223,-47.965 27.602,-85.20002 79.0699,-85.20002 m 0,146.52802 c 28.0361,0 50.5981,-21.903 50.5981,-61.328 0,-39.645 -22.781,-61.547 -50.5981,-61.547 -28.0349,0 -50.5929,22.121 -50.5929,61.547 0,39.207 22.558,61.328 50.5929,61.328"
                 style="fill:#939598;fill-opacity:1;fill-rule:nonzero;stroke:none;stroke-width:1"
                 id="path68-6"
                 inkscape:connector-curvature="0" /></g></g></g></g><path
         sodipodi:nodetypes="cccccsscccsc"
         id="path930"
         d="m 1855.9127,969.914 h 31.6574 l 45.5074,130.1792 45.1777,-130.1792 h 32.6467 c 0,0 -80.3177,203.9312 -81.122,205.3655 -4.4962,8.0175 -9.7215,24.6852 -25.0358,24.5991 l -34.9813,-0.1966 v -23.8562 c 15.1634,1.1663 30.7568,2.5849 36.5472,-9.9329 0,0 12.1779,-22.2226 10.2793,-27.547 z"
         style="fill:#939598;fill-opacity:1;stroke:none;stroke-width:0.75px;stroke-linecap:butt;stroke-linejoin:miter;stroke-opacity:1" /><path
         sodipodi:nodetypes="ccccccccccccccccc"
         id="path952"
         d="M 2291.2014,989.29243 V 968.1875 h 22.0942 v -39.24188 c 2.2912,-15.40931 12.4255,-23.62541 29.6787,-25.39185 h 27.3705 v 25.39185 h -16.1585 c -7.4965,-3e-5 -11.212,3.93199 -11.212,11.21198 v 28.0299 h 27.3705 v 21.10493 h -27.3705 v 147.07487 h -29.6787 V 989.29243 Z"
         style="fill:#939598;fill-opacity:1;stroke:none;stroke-width:0.75px;stroke-linecap:butt;stroke-linejoin:miter;stroke-opacity:1" /></g><g
       id="g3485"
       transform="matrix(0.53867669,0,0,0.53867669,-34.681489,228.69051)"><path
         class="cls-4"
         d="m 83.62,148.65 c -19.13,19.13 -50.14,19.13 -69.27,0 -19.13,-19.13 -19.13,-50.14 0,-69.27 19.13,-19.13 50.14,-19.13 69.27,0 19.13,19.13 19.13,50.14 0,69.27"
         id="path3424" /><path
         class="cls-1"
         d="m 83.62,83.62 c -19.13,19.13 -50.14,19.13 -69.27,0 -19.13,-19.13 -19.13,-50.15 0,-69.27 19.13,-19.13 50.14,-19.13 69.27,0 19.13,19.13 19.13,50.14 0,69.27"
         id="path3426" /><path
         class="cls-3"
         d="m 14.35,79.38 c -0.69,0.69 -1.35,1.4 -1.99,2.12 0.64,0.72 1.3,1.43 1.99,2.12 19.13,19.13 50.14,19.13 69.27,0 0.69,-0.69 1.35,-1.4 1.99,-2.12 -0.64,-0.72 -1.3,-1.43 -1.99,-2.12 -19.13,-19.13 -50.14,-19.13 -69.27,0"
         id="path3428" /><path
         class="cls-2"
         d="m 57.17,73.31 c 4.52,4.52 4.52,11.86 0,16.38 -4.52,4.52 -11.86,4.52 -16.38,0 -4.52,-4.52 -4.52,-11.86 0,-16.38 4.52,-4.52 11.86,-4.52 16.38,0"
         id="path3430" /><path
         class="cls-5"
         d="m 127.5,57.74 h 5.83 l -2.91,-7.82 -2.91,7.82 z m 6.96,2.99 h -8.09 l -1.78,4.8 h -3.43 l 7.45,-19.13 h 3.75 l 7.45,19.13 h -3.53 l -1.81,-4.8 z"
         id="path3432" /><path
         class="cls-5"
         d="M 142.01,65.54 V 52.4 H 145 v 1.67 c 0.75,-1.35 2.4,-2.05 3.88,-2.05 1.73,0 3.24,0.78 3.94,2.32 1.03,-1.73 2.56,-2.32 4.26,-2.32 2.37,0 4.64,1.51 4.64,4.99 v 8.52 h -3.02 v -8.01 c 0,-1.54 -0.78,-2.7 -2.54,-2.7 -1.65,0 -2.72,1.29 -2.72,2.91 v 7.8 h -3.08 v -8.01 c 0,-1.51 -0.75,-2.7 -2.54,-2.7 -1.67,0 -2.73,1.24 -2.73,2.91 v 7.8 h -3.1 z"
         id="path3434" /><path
         class="cls-5"
         d="m 165.56,52.4 h 3.1 v 13.14 h -3.1 z m 1.54,-6.66 c 1.13,0 2.05,0.92 2.05,2.05 0,1.13 -0.92,2.02 -2.05,2.02 -1.13,0 -2.02,-0.89 -2.02,-2.02 0,-1.13 0.92,-2.05 2.02,-2.05"
         id="path3436" /><path
         class="cls-5"
         d="m 174.27,61.22 c 0.11,1.19 1,2.24 2.67,2.24 1.29,0 1.97,-0.7 1.97,-1.51 0,-0.7 -0.49,-1.24 -1.54,-1.46 l -1.94,-0.43 c -2.32,-0.51 -3.53,-2.02 -3.53,-3.83 0,-2.29 2.1,-4.24 4.83,-4.24 3.67,0 4.86,2.37 5.07,3.67 l -2.64,0.75 c -0.11,-0.75 -0.68,-1.97 -2.43,-1.97 -1.11,0 -1.89,0.7 -1.89,1.51 0,0.7 0.51,1.21 1.32,1.38 l 2,0.4 c 2.48,0.54 3.78,2.05 3.78,3.99 0,1.94 -1.62,4.21 -4.96,4.21 -3.8,0 -5.26,-2.48 -5.42,-3.97 l 2.72,-0.75 z"
         id="path3438" /><path
         class="cls-5"
         d="m 128.55,88.65 c 2.05,0 3.48,-1.7 3.48,-4.21 0,-2.51 -1.4,-4.07 -3.45,-4.07 -2.05,0 -3.56,1.59 -3.56,4.1 0,2.51 1.4,4.18 3.53,4.18 m 6.5,0.03 c 0,1.19 0.11,2.18 0.13,2.4 h -2.99 c -0.05,-0.3 -0.14,-1.16 -0.14,-1.7 -0.62,1.11 -2,2.02 -3.86,2.02 -3.78,0 -6.31,-2.97 -6.31,-6.93 0,-3.96 2.56,-6.88 6.26,-6.88 2.29,0 3.45,1.05 3.86,1.89 v -7.93 h 3.05 z"
         id="path3440" /><path
         class="cls-5"
         d="m 147.78,83.06 c -0.05,-1.54 -1.08,-2.91 -3.24,-2.91 -1.97,0 -3.1,1.51 -3.21,2.91 z m 2.99,4.26 c -0.7,2.29 -2.78,4.15 -5.93,4.15 -3.56,0 -6.72,-2.59 -6.72,-7.04 0,-4.15 3.08,-6.91 6.39,-6.91 4.05,0 6.42,2.67 6.42,6.83 0,0.51 -0.05,0.94 -0.08,1 h -9.6 c 0.08,2 1.65,3.43 3.59,3.43 1.94,0 2.86,-1 3.29,-2.29 l 2.64,0.84 z"
         id="path3442" /><path
         class="cls-5"
         d="m 155.5,86.76 c 0.11,1.19 1,2.24 2.67,2.24 1.29,0 1.97,-0.7 1.97,-1.51 0,-0.7 -0.49,-1.24 -1.54,-1.46 l -1.94,-0.43 c -2.32,-0.51 -3.53,-2.02 -3.53,-3.83 0,-2.29 2.1,-4.24 4.83,-4.24 3.67,0 4.86,2.37 5.07,3.67 l -2.64,0.75 c -0.11,-0.75 -0.68,-1.97 -2.43,-1.97 -1.11,0 -1.89,0.7 -1.89,1.51 0,0.7 0.51,1.21 1.32,1.38 l 2,0.4 c 2.48,0.54 3.78,2.05 3.78,3.99 0,1.94 -1.62,4.21 -4.96,4.21 -3.8,0 -5.26,-2.48 -5.42,-3.97 l 2.72,-0.75 z"
         id="path3444" /><path
         class="cls-5"
         d="m 127.5,108.82 h 5.83 l -2.91,-7.82 -2.91,7.82 z m 6.96,2.99 h -8.09 l -1.78,4.8 h -3.43 l 7.45,-19.13 h 3.75 l 7.45,19.13 h -3.53 l -1.81,-4.8 z"
         id="path3446" /><polygon
         class="cls-5"
         points="139.34,103.47 142.79,103.47 146.27,112.86 149.67,103.47 152.96,103.47 147.81,116.61 144.68,116.61 "
         id="polygon3448" /><path
         class="cls-5"
         d="m 163.48,108.6 c -0.05,-1.54 -1.08,-2.91 -3.24,-2.91 -1.97,0 -3.1,1.51 -3.21,2.91 z m 2.99,4.26 c -0.7,2.29 -2.78,4.15 -5.93,4.15 -3.56,0 -6.72,-2.59 -6.72,-7.04 0,-4.15 3.07,-6.91 6.39,-6.91 4.05,0 6.42,2.67 6.42,6.83 0,0.51 -0.05,0.94 -0.08,1 h -9.6 c 0.08,2 1.65,3.43 3.59,3.43 1.94,0 2.86,-1 3.29,-2.29 l 2.64,0.84 z"
         id="path3450" /><path
         class="cls-5"
         d="m 174.19,116.99 c -3.13,0 -4.96,-2.32 -4.96,-5.23 v -8.28 h 3.13 v 7.71 c 0,1.62 0.75,2.99 2.64,2.99 1.89,0 2.75,-1.21 2.75,-2.94 v -7.77 h 3.13 v 10.74 c 0,1.08 0.08,1.92 0.13,2.4 h -2.99 c -0.05,-0.3 -0.11,-0.92 -0.11,-1.46 -0.65,1.19 -2.18,1.83 -3.72,1.83"
         id="path3452" /><path
         class="cls-5"
         d="m 193.88,109.63 c 0,-2.24 -1.43,-3.7 -3.37,-3.7 -1.94,0 -3.43,1.46 -3.43,3.7 0,2.24 1.38,3.72 3.43,3.72 2.05,0 3.37,-1.46 3.37,-3.72 m -7.09,6.96 c 0.22,1.62 1.48,2.83 3.29,2.83 2.48,0 3.72,-1.27 3.72,-3.94 v -1.38 c -0.57,1.03 -1.89,1.91 -3.8,1.91 -3.51,0 -6.07,-2.7 -6.07,-6.39 0,-3.69 2.45,-6.39 6.07,-6.39 2.05,0 3.32,0.84 3.88,1.91 v -1.67 h 3.02 v 11.9 c 0,3.51 -1.81,6.77 -6.74,6.77 -3.48,0 -5.91,-2.16 -6.26,-4.8 z"
         id="path3454" /><rect
         class="cls-5"
         x="200.74001"
         y="97.080002"
         width="3.1300001"
         height="19.530001"
         id="rect3456" /><path
         class="cls-5"
         d="m 216.54,108.6 c -0.05,-1.54 -1.08,-2.91 -3.24,-2.91 -1.97,0 -3.1,1.51 -3.21,2.91 z m 2.99,4.26 c -0.7,2.29 -2.78,4.15 -5.93,4.15 -3.56,0 -6.72,-2.59 -6.72,-7.04 0,-4.15 3.07,-6.91 6.39,-6.91 4.05,0 6.42,2.67 6.42,6.83 0,0.51 -0.05,0.94 -0.08,1 h -9.6 c 0.08,2 1.65,3.43 3.59,3.43 1.94,0 2.86,-1 3.29,-2.29 l 2.64,0.84 z"
         id="path3458" /><path
         class="cls-5"
         d="m 224.26,112.3 c 0.11,1.19 1,2.24 2.67,2.24 1.29,0 1.97,-0.7 1.97,-1.51 0,-0.7 -0.49,-1.24 -1.54,-1.46 l -1.94,-0.43 c -2.32,-0.51 -3.53,-2.02 -3.53,-3.83 0,-2.29 2.1,-4.24 4.83,-4.24 3.67,0 4.86,2.37 5.07,3.67 l -2.64,0.75 c -0.11,-0.75 -0.68,-1.97 -2.43,-1.97 -1.11,0 -1.89,0.7 -1.89,1.51 0,0.7 0.51,1.21 1.32,1.38 l 2,0.4 c 2.48,0.54 3.78,2.05 3.78,3.99 0,1.94 -1.62,4.21 -4.96,4.21 -3.8,0 -5.26,-2.48 -5.42,-3.97 l 2.72,-0.75 z"
         id="path3460" /></g></g></svg>
