<?xml version="1.0" encoding="UTF-8" standalone="no"?>
<!-- Created with Inkscape (http://www.inkscape.org/) -->

<svg
   width="884.08801mm"
   height="130.29001mm"
   viewBox="0 0 884.08801 130.29001"
   version="1.1"
   id="svg5487"
   xml:space="preserve"
   inkscape:version="1.2.2 (732a01da63, 2022-12-09)"
   sodipodi:docname="logo_r.svg"
   xmlns:inkscape="http://www.inkscape.org/namespaces/inkscape"
   xmlns:sodipodi="http://sodipodi.sourceforge.net/DTD/sodipodi-0.dtd"
   xmlns="http://www.w3.org/2000/svg"
   xmlns:svg="http://www.w3.org/2000/svg"><sodipodi:namedview
     id="namedview5489"
     pagecolor="#505050"
     bordercolor="#eeeeee"
     borderopacity="1"
     inkscape:showpageshadow="0"
     inkscape:pageopacity="0"
     inkscape:pagecheckerboard="0"
     inkscape:deskcolor="#505050"
     inkscape:document-units="mm"
     showgrid="false"
     inkscape:zoom="0.14866305"
     inkscape:cx="3077.4291"
     inkscape:cy="-380.05409"
     inkscape:window-width="1920"
     inkscape:window-height="991"
     inkscape:window-x="-9"
     inkscape:window-y="-9"
     inkscape:window-maximized="1"
     inkscape:current-layer="svg5487" /><defs
     id="defs5484"><clipPath
       clipPathUnits="userSpaceOnUse"
       id="clipPath10421"><path
         d="M 0,369.326 H 1298.948 V 0 H 0 Z"
         id="path10419" /></clipPath></defs><g
     inkscape:label="Calque 1"
     inkscape:groupmode="layer"
     id="layer1"
     transform="translate(204.06828,-242.93612)"
     style="display:inline"
     sodipodi:insensitive="true" /><path
     d="M 439.53157,97.836562 H 428.58241 V 4.3783228 h 10.94916 z"
     style="fill:#1d1d1b;fill-opacity:1;fill-rule:nonzero;stroke:none;stroke-width:0.352778"
     id="path10413" /><g
     id="g10415"
     transform="matrix(0.35277776,0,0,-0.35277778,425.84803,130.29001)"><g
       id="g10417"
       clip-path="url(#clipPath10421)"><path
         d="M 38.788,91.994 H 7.751 v 264.921 h 31.037 z"
         style="fill:none;stroke:#1d1d1b;stroke-width:10;stroke-linecap:butt;stroke-linejoin:miter;stroke-miterlimit:10;stroke-dasharray:none;stroke-opacity:1"
         id="path10423" /><g
         id="g10425"
         transform="translate(96.0586,102.7087)"><path
           d="m 0,0 v 36.579 c 4.186,-3.695 9.205,-7.02 15.057,-9.976 5.848,-2.956 12.008,-5.449 18.474,-7.483 6.466,-2.03 12.961,-3.602 19.49,-4.71 6.526,-1.109 12.563,-1.663 18.105,-1.663 19.089,0 33.346,3.54 42.768,10.624 9.422,7.078 14.133,17.272 14.133,30.574 0,7.141 -1.571,13.362 -4.711,18.659 -3.141,5.295 -7.482,10.13 -13.025,14.501 -5.542,4.372 -12.1,8.561 -19.675,12.563 -7.574,4.002 -15.735,8.222 -24.478,12.655 -9.237,4.679 -17.86,9.422 -25.864,14.226 -8.007,4.803 -14.964,10.098 -20.876,15.887 -5.912,5.788 -10.562,12.347 -13.948,19.675 -3.389,7.327 -5.081,15.919 -5.081,25.772 0,12.069 2.647,22.568 7.944,31.499 5.295,8.928 12.254,16.286 20.876,22.076 8.62,5.788 18.442,10.098 29.467,12.932 11.021,2.832 22.261,4.25 33.715,4.25 26.109,0 45.138,-3.141 57.086,-9.422 v -34.917 c -15.643,10.837 -35.719,16.258 -60.226,16.258 -6.776,0 -13.55,-0.71 -20.322,-2.125 -6.775,-1.418 -12.81,-3.727 -18.105,-6.928 -5.297,-3.204 -9.606,-7.329 -12.932,-12.377 -3.325,-5.052 -4.988,-11.209 -4.988,-18.475 0,-6.775 1.261,-12.624 3.787,-17.55 2.524,-4.928 6.25,-9.422 11.177,-13.486 4.925,-4.065 10.929,-8.009 18.013,-11.824 7.08,-3.819 15.241,-8.008 24.478,-12.562 9.482,-4.683 18.474,-9.607 26.973,-14.78 8.498,-5.173 15.948,-10.9 22.353,-17.181 6.403,-6.281 11.484,-13.241 15.242,-20.876 3.755,-7.638 5.634,-16.382 5.634,-26.233 0,-13.057 -2.557,-24.11 -7.667,-33.161 -5.112,-9.054 -12.008,-16.412 -20.691,-22.077 -8.683,-5.667 -18.691,-9.762 -30.02,-12.285 -11.333,-2.524 -23.278,-3.788 -35.84,-3.788 -4.189,0 -9.362,0.34 -15.519,1.015 -6.159,0.681 -12.441,1.665 -18.844,2.956 -6.405,1.295 -12.47,2.894 -18.197,4.803 C 8.036,-4.465 3.447,-2.341 0,0"
           style="fill:#1d1d1b;fill-opacity:1;fill-rule:nonzero;stroke:none"
           id="path10427" /></g><g
         id="g10429"
         transform="translate(96.0586,102.7087)"><path
           d="m 0,0 v 36.579 c 4.186,-3.695 9.205,-7.02 15.057,-9.976 5.848,-2.956 12.008,-5.449 18.474,-7.483 6.466,-2.03 12.961,-3.602 19.49,-4.71 6.526,-1.109 12.563,-1.663 18.105,-1.663 19.089,0 33.346,3.54 42.768,10.624 9.422,7.078 14.133,17.272 14.133,30.574 0,7.141 -1.571,13.362 -4.711,18.659 -3.141,5.295 -7.482,10.13 -13.025,14.501 -5.542,4.372 -12.1,8.561 -19.675,12.563 -7.574,4.002 -15.735,8.222 -24.478,12.655 -9.237,4.679 -17.86,9.422 -25.864,14.226 -8.007,4.803 -14.964,10.098 -20.876,15.887 -5.912,5.788 -10.562,12.347 -13.948,19.675 -3.389,7.327 -5.081,15.919 -5.081,25.772 0,12.069 2.647,22.568 7.944,31.499 5.295,8.928 12.254,16.286 20.876,22.076 8.62,5.788 18.442,10.098 29.467,12.932 11.021,2.832 22.261,4.25 33.715,4.25 26.109,0 45.138,-3.141 57.086,-9.422 v -34.917 c -15.643,10.837 -35.719,16.258 -60.226,16.258 -6.776,0 -13.55,-0.71 -20.322,-2.125 -6.775,-1.418 -12.81,-3.727 -18.105,-6.928 -5.297,-3.204 -9.606,-7.329 -12.932,-12.377 -3.325,-5.052 -4.988,-11.209 -4.988,-18.475 0,-6.775 1.261,-12.624 3.787,-17.55 2.524,-4.928 6.25,-9.422 11.177,-13.486 4.925,-4.065 10.929,-8.009 18.013,-11.824 7.08,-3.819 15.241,-8.008 24.478,-12.562 9.482,-4.683 18.474,-9.607 26.973,-14.78 8.498,-5.173 15.948,-10.9 22.353,-17.181 6.403,-6.281 11.484,-13.241 15.242,-20.876 3.755,-7.638 5.634,-16.382 5.634,-26.233 0,-13.057 -2.557,-24.11 -7.667,-33.161 -5.112,-9.054 -12.008,-16.412 -20.691,-22.077 -8.683,-5.667 -18.691,-9.762 -30.02,-12.285 -11.333,-2.524 -23.278,-3.788 -35.84,-3.788 -4.189,0 -9.362,0.34 -15.519,1.015 -6.159,0.681 -12.441,1.665 -18.844,2.956 -6.405,1.295 -12.47,2.894 -18.197,4.803 C 8.036,-4.465 3.447,-2.341 0,0 Z"
           style="fill:none;stroke:#1d1d1b;stroke-width:10;stroke-linecap:butt;stroke-linejoin:miter;stroke-miterlimit:10;stroke-dasharray:none;stroke-opacity:1"
           id="path10431" /></g><path
         d="m 340.473,91.994 h -31.037 v 264.921 h 31.037 z"
         style="fill:#e20142;fill-opacity:1;fill-rule:nonzero;stroke:#e20142;stroke-width:10;stroke-linecap:butt;stroke-linejoin:miter;stroke-miterlimit:10;stroke-dasharray:none;stroke-opacity:1"
         id="path10433" /><g
         id="g10435"
         transform="translate(542.5813,194.1562)"><path
           d="m 0,0 -41.567,112.878 c -1.356,3.695 -2.711,9.606 -4.064,17.735 h -0.739 c -1.233,-7.514 -2.65,-13.426 -4.249,-17.735 L -91.817,0 Z M 72.604,-102.163 H 38.242 l -28.081,74.267 h -112.324 l -26.418,-74.267 h -34.547 l 101.609,264.921 h 32.145 z"
           style="fill:#e20142;fill-opacity:1;fill-rule:nonzero;stroke:none"
           id="path10437" /></g><g
         id="g10439"
         transform="translate(542.5813,194.1562)"><path
           d="m 0,0 -41.567,112.878 c -1.356,3.695 -2.711,9.606 -4.064,17.735 h -0.739 c -1.233,-7.514 -2.65,-13.426 -4.249,-17.735 L -91.817,0 Z M 72.604,-102.163 H 38.242 l -28.081,74.267 h -112.324 l -26.418,-74.267 h -34.547 l 101.609,264.921 h 32.145 z"
           style="fill:none;stroke:#e20142;stroke-width:10;stroke-linecap:butt;stroke-linejoin:miter;stroke-miterlimit:10;stroke-dasharray:none;stroke-opacity:1"
           id="path10441" /></g><g
         id="g10443"
         transform="translate(899.6011,112.0469)"><path
           d="m 0,0 c -2.902,-2.022 -6.373,-3.158 -10.405,-3.407 l -65.077,-4.916 -45.024,-3.784 -23.457,-1.893 c -2.022,0 -3.849,1.259 -5.486,3.783 -1.644,2.52 -2.46,4.92 -2.46,7.189 0,1.762 0.568,3.086 1.703,3.973 1.135,0.881 2.394,1.513 3.783,1.892 1.384,0.379 2.33,0.691 2.838,0.947 0.248,13.621 0.378,45.4 0.378,95.343 0,36.824 -1.454,65.391 -4.351,85.697 -2.902,20.301 -4.351,31.215 -4.351,32.728 0,3.529 1.324,6.302 3.973,8.324 2.649,2.016 5.356,3.027 8.135,3.027 1.761,0 3.151,-0.697 4.161,-2.081 1.005,-1.389 1.762,-3.595 2.27,-6.622 2.519,-8.577 4.476,-24.344 5.865,-47.293 1.383,-22.954 2.081,-46.916 2.081,-71.888 0,-21.187 -0.13,-40.863 -0.378,-59.022 -0.255,-18.161 -0.379,-30.399 -0.379,-36.7 3.276,0.247 9.583,0.691 18.918,1.323 9.329,0.626 18.917,1.326 28.755,2.08 14.625,1.762 31.149,4.411 49.564,7.946 14.88,2.773 23.836,4.162 26.863,4.162 2.772,0 4.54,-1.264 5.297,-3.783 C 3.973,14.501 4.351,11.473 4.351,7.946 4.351,4.663 2.897,2.015 0,0"
           style="fill:#1d1d1b;fill-opacity:1;fill-rule:nonzero;stroke:none"
           id="path10445" /></g><g
         id="g10447"
         transform="translate(998.9167,124.5316)"><path
           d="m 0,0 c 12.609,10.085 23.896,22.134 33.862,36.132 9.963,14.001 20.999,31.215 33.106,51.646 3.028,7.569 4.541,15.759 4.541,24.592 0,5.297 -1.579,9.898 -4.729,13.811 -3.159,3.909 -7.379,5.865 -12.676,5.865 -6.308,0 -14.377,-4.294 -24.215,-12.866 C 18.54,109.593 6.557,96.793 -6.054,80.777 -18.669,64.757 -29.133,48.931 -37.457,33.296 -45.781,17.654 -49.943,5.297 -49.943,-3.784 c 0,-7.565 3.53,-11.349 10.594,-11.349 13.621,0 26.732,5.042 39.349,15.133 m 97.237,-13.811 c 1.762,-1.89 2.648,-3.469 2.648,-4.729 0,-3.026 -1.265,-6.496 -3.784,-10.404 -2.524,-3.907 -5.048,-5.865 -7.567,-5.865 -4.291,0 -7.566,2.648 -9.838,7.945 -2.269,5.298 -3.403,11.476 -3.403,18.541 0,6.054 0.378,24.215 1.134,54.481 l 0.379,14.379 c 0,5.799 -1.513,9.961 -4.541,12.485 C 60.914,53.851 50.32,37.203 40.484,23.079 30.648,8.949 18.161,-4.352 3.026,-16.837 c -15.133,-12.485 -31.025,-18.727 -47.671,-18.727 -8.077,0 -14.319,2.524 -18.729,7.565 -4.416,5.044 -6.621,11.6 -6.621,19.676 0,10.085 4.54,23.896 13.62,41.429 9.081,17.529 20.68,35.311 34.809,53.348 14.122,18.031 28.246,32.851 42.376,44.456 9.328,7.567 16.771,12.676 22.323,15.324 5.546,2.649 10.462,3.971 14.756,3.971 4.031,0 8.192,-1.264 12.484,-3.782 4.286,-2.524 7.946,-6.054 10.972,-10.594 3.028,-4.541 4.541,-9.714 4.541,-15.513 0,-7.821 -2.145,-15.264 -6.431,-22.323 l 6.431,1.892 c 2.773,0 4.41,-3.405 4.918,-10.215 0.249,-4.039 0.568,-12.238 0.947,-24.594 0.377,-12.36 0.69,-22.577 0.945,-30.646 0.249,-8.323 0.504,-16.399 0.757,-24.213 0.248,-7.821 0.503,-14.001 0.756,-18.54 0.249,-1.768 1.26,-3.594 3.028,-5.488"
           style="fill:#1d1d1b;fill-opacity:1;fill-rule:nonzero;stroke:none"
           id="path10449" /></g><g
         id="g10451"
         transform="translate(1273.2205,168.232)"><path
           d="m 0,0 c -17.156,-25.351 -38.971,-47.737 -65.455,-67.157 -11.102,-8.325 -19.427,-12.486 -24.972,-12.486 -2.778,0 -5.048,1.011 -6.81,3.027 -1.767,2.015 -2.648,4.411 -2.648,7.188 0,2.773 1.194,5.546 3.593,8.323 2.394,2.773 5.99,5.169 10.783,7.189 17.405,7.567 33.295,18.475 47.674,32.727 14.377,14.249 25.597,29.324 33.674,45.213 8.068,15.892 12.105,29.89 12.105,41.997 0,4.79 -1.075,8.386 -3.215,10.785 C 2.583,79.198 -0.887,80.4 -5.676,80.4 -16.269,80.4 -27.118,76.108 -38.214,67.536 -49.317,58.958 -59.656,47.732 -69.24,33.862 -76.557,23.27 -83.616,10.528 -90.427,-4.352 c -6.81,-14.885 -11.983,-30.646 -15.512,-47.294 -2.023,-8.833 -6.309,-13.241 -12.864,-13.241 -1.768,0 -3.66,1.573 -5.676,4.729 -2.021,3.15 -3.026,5.988 -3.026,8.512 0,29.259 -1.012,72.267 -3.026,129.02 -2.023,56.752 -3.407,89.16 -4.164,97.236 0,1.513 -0.13,2.962 -0.377,4.35 -0.255,1.384 -0.51,2.708 -0.756,3.973 -0.255,1.514 -0.51,3.086 -0.757,4.729 -0.255,1.638 -0.379,3.217 -0.379,4.73 0,5.8 2.648,8.702 7.946,8.702 4.286,0 7.755,-2.714 10.404,-8.134 2.648,-5.428 3.973,-11.54 3.973,-18.35 v -20.053 c 0,-60.035 0.881,-106.193 2.648,-138.479 1.006,-15.889 2.017,-24.72 3.026,-26.482 2.773,8.323 7.125,17.652 13.055,27.997 5.923,10.34 12.165,19.923 18.727,28.756 11.854,16.137 24.718,29.067 38.593,38.78 13.868,9.708 26.485,14.566 37.836,14.566 7.813,0 14.188,-2.524 19.106,-7.567 C 23.268,87.08 25.728,79.766 25.728,70.183 25.728,48.741 17.15,25.351 0,0"
           style="fill:#1d1d1b;fill-opacity:1;fill-rule:nonzero;stroke:none"
           id="path10453" /></g><path
         d="M 5.046,7.134 H 0 v 39.091 h 5.046 z"
         style="fill:#878787;fill-opacity:1;fill-rule:nonzero;stroke:none"
         id="path10455" /><g
         id="g10457"
         transform="translate(13.8618,7.1338)"><path
           d="M 0,0 V 39.091 H 5.51 L 18.038,19.313 c 2.899,-4.582 5.162,-8.7 7.018,-12.701 l 0.115,0.058 c -0.463,5.22 -0.579,9.976 -0.579,16.065 v 16.356 h 4.756 V 0 H 24.244 L 11.832,19.836 C 9.106,24.186 6.496,28.651 4.524,32.885 L 4.35,32.827 C 4.64,27.897 4.756,23.199 4.756,16.703 V 0 Z"
           style="fill:#878787;fill-opacity:1;fill-rule:nonzero;stroke:none"
           id="path10459" /></g><g
         id="g10461"
         transform="translate(52.0254,46.2246)"><path
           d="M 0,0 H 21.054 V -4.233 H 5.046 v -12.993 h 14.79 v -4.175 H 5.046 v -17.69 H 0 Z"
           style="fill:#878787;fill-opacity:1;fill-rule:nonzero;stroke:none"
           id="path10463" /></g><g
         id="g10465"
         transform="translate(83.3457,26.4473)"><path
           d="m 0,0 c 0,-8.352 4.524,-15.834 12.47,-15.834 8.004,0 12.528,7.366 12.528,16.24 0,7.772 -4.061,15.892 -12.47,15.892 C 4.176,16.298 0,8.584 0,0 m 30.333,0.638 c 0,-13.455 -8.178,-20.589 -18.153,-20.589 -10.324,0 -17.574,8.004 -17.574,19.835 0,12.412 7.714,20.532 18.154,20.532 10.671,0 17.573,-8.179 17.573,-19.778"
           style="fill:#878787;fill-opacity:1;fill-rule:nonzero;stroke:none"
           id="path10467" /></g><g
         id="g10469"
         transform="translate(125.2793,27.8975)"><path
           d="m 0,0 h 5.162 c 5.394,0 8.816,2.958 8.816,7.424 0,5.046 -3.654,7.25 -8.99,7.307 C 2.552,14.731 0.812,14.5 0,14.268 Z m -5.046,17.806 c 2.552,0.521 6.206,0.811 9.686,0.811 5.394,0 8.874,-0.985 11.31,-3.189 1.972,-1.74 3.074,-4.408 3.074,-7.424 0,-5.162 -3.248,-8.584 -7.366,-9.976 v -0.174 c 3.016,-1.044 4.814,-3.828 5.742,-7.888 1.276,-5.451 2.204,-9.222 3.016,-10.73 h -5.22 c -0.638,1.102 -1.508,4.466 -2.61,9.338 -1.16,5.394 -3.248,7.424 -7.83,7.598 H 0 v -16.936 h -5.046 z"
           style="fill:#878787;fill-opacity:1;fill-rule:nonzero;stroke:none"
           id="path10471" /></g><g
         id="g10473"
         transform="translate(184.3804,24.3018)"><path
           d="M 0,0 C -0.29,5.451 -0.638,12.005 -0.58,16.877 H -0.754 C -2.088,12.295 -3.712,7.424 -5.684,2.029 l -6.901,-18.965 h -3.829 l -6.321,18.618 c -1.856,5.509 -3.422,10.555 -4.524,15.195 h -0.116 c -0.116,-4.872 -0.406,-11.426 -0.754,-17.283 l -1.044,-16.762 h -4.814 l 2.726,39.091 h 6.438 l 6.67,-18.907 c 1.623,-4.814 2.957,-9.106 3.944,-13.166 h 0.173 c 0.986,3.944 2.378,8.236 4.119,13.166 l 6.959,18.907 H 3.48 l 2.436,-39.091 h -4.93 z"
           style="fill:#878787;fill-opacity:1;fill-rule:nonzero;stroke:none"
           id="path10475" /></g><g
         id="g10477"
         transform="translate(216.6284,23.373)"><path
           d="m 0,0 -3.828,11.252 c -0.87,2.552 -1.45,4.872 -2.03,7.134 h -0.116 c -0.58,-2.32 -1.218,-4.698 -1.972,-7.075 L -11.773,0 Z m -12.817,-3.943 -4.06,-12.296 h -5.22 l 13.281,39.091 h 6.09 l 13.34,-39.091 H 5.22 L 1.044,-3.943 Z"
           style="fill:#878787;fill-opacity:1;fill-rule:nonzero;stroke:none"
           id="path10479" /></g><g
         id="g10481"
         transform="translate(235.9429,41.9326)"><path
           d="M 0,0 H -11.89 V 4.292 H 17.052 V 0 H 5.104 V -34.799 H 0 Z"
           style="fill:#878787;fill-opacity:1;fill-rule:nonzero;stroke:none"
           id="path10483" /></g><path
         d="m 262.391,7.134 h -5.046 v 39.091 h 5.046 z"
         style="fill:#878787;fill-opacity:1;fill-rule:nonzero;stroke:none"
         id="path10485" /><g
         id="g10487"
         transform="translate(274.2808,26.4473)"><path
           d="m 0,0 c 0,-8.352 4.524,-15.834 12.47,-15.834 8.004,0 12.527,7.366 12.527,16.24 0,7.772 -4.06,15.892 -12.469,15.892 C 4.176,16.298 0,8.584 0,0 m 30.333,0.638 c 0,-13.455 -8.178,-20.589 -18.153,-20.589 -10.324,0 -17.574,8.004 -17.574,19.835 0,12.412 7.714,20.532 18.154,20.532 10.671,0 17.573,-8.179 17.573,-19.778"
           style="fill:#878787;fill-opacity:1;fill-rule:nonzero;stroke:none"
           id="path10489" /></g><g
         id="g10491"
         transform="translate(311.1685,7.1338)"><path
           d="M 0,0 V 39.091 H 5.51 L 18.038,19.313 c 2.899,-4.582 5.162,-8.7 7.018,-12.701 l 0.115,0.058 c -0.463,5.22 -0.579,9.976 -0.579,16.065 v 16.356 h 4.756 V 0 H 24.244 L 11.832,19.836 C 9.106,24.186 6.496,28.651 4.524,32.885 L 4.35,32.827 C 4.64,27.897 4.756,23.199 4.756,16.703 V 0 Z"
           style="fill:#878787;fill-opacity:1;fill-rule:nonzero;stroke:none"
           id="path10493" /></g><g
         id="g10495"
         transform="translate(345.8521)"><path
           d="m 0,0 c 1.276,3.422 2.842,9.628 3.48,13.861 l 5.684,0.58 C 7.83,9.512 5.278,3.074 3.654,0.348 Z"
           style="fill:#878787;fill-opacity:1;fill-rule:nonzero;stroke:none"
           id="path10497" /></g><g
         id="g10499"
         transform="translate(372.937,13.2812)"><path
           d="m 0,0 c 2.262,-1.392 5.568,-2.552 9.048,-2.552 5.161,0 8.178,2.727 8.178,6.67 0,3.654 -2.088,5.742 -7.366,7.772 -6.38,2.262 -10.324,5.568 -10.324,11.078 0,6.09 5.046,10.614 12.644,10.614 4.002,0 6.902,-0.929 8.641,-1.914 L 19.43,27.55 c -1.276,0.696 -3.887,1.855 -7.424,1.855 -5.336,0 -7.366,-3.189 -7.366,-5.857 0,-3.654 2.378,-5.452 7.772,-7.54 6.611,-2.552 9.976,-5.741 9.976,-11.484 0,-6.032 -4.467,-11.252 -13.688,-11.252 -3.77,0 -7.888,1.103 -9.976,2.495 z"
           style="fill:#878787;fill-opacity:1;fill-rule:nonzero;stroke:none"
           id="path10501" /></g><path
         d="m 407.272,7.134 h -5.046 v 39.091 h 5.046 z"
         style="fill:#878787;fill-opacity:1;fill-rule:nonzero;stroke:none"
         id="path10503" /><g
         id="g10505"
         transform="translate(445.8418,8.874)"><path
           d="m 0,0 c -2.262,-0.812 -6.728,-2.146 -12.006,-2.146 -5.915,0 -10.787,1.507 -14.615,5.162 -3.364,3.248 -5.452,8.467 -5.452,14.557 0.058,11.658 8.062,20.184 21.169,20.184 4.524,0 8.062,-0.986 9.744,-1.798 l -1.218,-4.118 c -2.088,0.928 -4.698,1.682 -8.642,1.682 -9.511,0 -15.717,-5.916 -15.717,-15.717 0,-9.918 5.973,-15.777 15.079,-15.777 3.306,0 5.568,0.465 6.728,1.044 v 11.658 h -7.945 v 4.06 H 0 Z"
           style="fill:#878787;fill-opacity:1;fill-rule:nonzero;stroke:none"
           id="path10507" /></g><g
         id="g10509"
         transform="translate(453.5562,7.1338)"><path
           d="M 0,0 V 39.091 H 5.51 L 18.038,19.313 c 2.899,-4.582 5.162,-8.7 7.018,-12.701 l 0.115,0.058 c -0.463,5.22 -0.579,9.976 -0.579,16.065 v 16.356 h 4.756 V 0 H 24.244 L 11.832,19.836 C 9.106,24.186 6.496,28.651 4.524,32.885 L 4.35,32.827 C 4.64,27.897 4.756,23.199 4.756,16.703 V 0 Z"
           style="fill:#878787;fill-opacity:1;fill-rule:nonzero;stroke:none"
           id="path10511" /></g><g
         id="g10513"
         transform="translate(510.8594,23.373)"><path
           d="m 0,0 -3.828,11.252 c -0.87,2.552 -1.45,4.872 -2.03,7.134 h -0.116 c -0.58,-2.32 -1.218,-4.698 -1.972,-7.075 L -11.773,0 Z m -12.817,-3.943 -4.06,-12.296 h -5.22 l 13.281,39.091 h 6.09 l 13.34,-39.091 H 5.22 L 1.044,-3.943 Z"
           style="fill:#878787;fill-opacity:1;fill-rule:nonzero;stroke:none"
           id="path10515" /></g><g
         id="g10517"
         transform="translate(527.2158,46.2246)"><path
           d="M 0,0 H 5.046 V -34.856 H 21.75 v -4.235 H 0 Z"
           style="fill:#878787;fill-opacity:1;fill-rule:nonzero;stroke:none"
           id="path10519" /></g><g
         id="g10521"
         transform="translate(587.1279,25.4609)"><path
           d="M 0,0 H -15.196 V -14.093 H 1.74 v -4.234 H -20.242 V 20.764 H 0.87 V 16.53 H -15.196 V 4.177 H 0 Z"
           style="fill:#878787;fill-opacity:1;fill-rule:nonzero;stroke:none"
           id="path10523" /></g><g
         id="g10525"
         transform="translate(603.7725,41.9326)"><path
           d="M 0,0 H -11.89 V 4.292 H 17.052 V 0 H 5.104 V -34.799 H 0 Z"
           style="fill:#878787;fill-opacity:1;fill-rule:nonzero;stroke:none"
           id="path10527" /></g><path
         d="m 642.516,7.134 h -5.046 v 39.091 h 5.046 z"
         style="fill:#878787;fill-opacity:1;fill-rule:nonzero;stroke:none"
         id="path10529" /><g
         id="g10531"
         transform="translate(651.3315,7.1338)"><path
           d="M 0,0 V 39.091 H 5.51 L 18.038,19.313 c 2.899,-4.582 5.162,-8.7 7.018,-12.701 l 0.115,0.058 c -0.463,5.22 -0.579,9.976 -0.579,16.065 v 16.356 h 4.756 V 0 H 24.244 L 11.832,19.836 C 9.106,24.186 6.496,28.651 4.524,32.885 L 4.35,32.827 C 4.64,27.897 4.756,23.199 4.756,16.703 V 0 Z"
           style="fill:#878787;fill-opacity:1;fill-rule:nonzero;stroke:none"
           id="path10533" /></g><g
         id="g10535"
         transform="translate(696.9189,41.9326)"><path
           d="M 0,0 H -11.89 V 4.292 H 17.052 V 0 H 5.104 V -34.799 H 0 Z"
           style="fill:#878787;fill-opacity:1;fill-rule:nonzero;stroke:none"
           id="path10537" /></g><g
         id="g10539"
         transform="translate(738.5625,25.4609)"><path
           d="M 0,0 H -15.196 V -14.093 H 1.74 v -4.234 H -20.242 V 20.764 H 0.87 V 16.53 H -15.196 V 4.177 H 0 Z"
           style="fill:#878787;fill-opacity:1;fill-rule:nonzero;stroke:none"
           id="path10541" /></g><g
         id="g10543"
         transform="translate(746.856,46.2246)"><path
           d="M 0,0 H 5.046 V -34.856 H 21.75 v -4.235 H 0 Z"
           style="fill:#878787;fill-opacity:1;fill-rule:nonzero;stroke:none"
           id="path10545" /></g><g
         id="g10547"
         transform="translate(774.231,46.2246)"><path
           d="M 0,0 H 5.046 V -34.856 H 21.75 v -4.235 H 0 Z"
           style="fill:#878787;fill-opacity:1;fill-rule:nonzero;stroke:none"
           id="path10549" /></g><path
         d="m 806.652,7.134 h -5.046 v 39.091 h 5.046 z"
         style="fill:#878787;fill-opacity:1;fill-rule:nonzero;stroke:none"
         id="path10551" /><g
         id="g10553"
         transform="translate(845.2212,8.874)"><path
           d="m 0,0 c -2.262,-0.812 -6.728,-2.146 -12.006,-2.146 -5.916,0 -10.787,1.507 -14.615,5.162 -3.364,3.248 -5.452,8.467 -5.452,14.557 0.057,11.658 8.061,20.184 21.17,20.184 4.523,0 8.061,-0.986 9.743,-1.798 l -1.218,-4.118 c -2.088,0.928 -4.698,1.682 -8.642,1.682 -9.511,0 -15.717,-5.916 -15.717,-15.717 0,-9.918 5.973,-15.777 15.08,-15.777 3.305,0 5.567,0.465 6.727,1.044 v 11.658 h -7.946 v 4.06 H 0 Z"
           style="fill:#878787;fill-opacity:1;fill-rule:nonzero;stroke:none"
           id="path10555" /></g><g
         id="g10557"
         transform="translate(873.1772,25.4609)"><path
           d="M 0,0 H -15.195 V -14.093 H 1.74 v -4.234 H -20.241 V 20.764 H 0.87 V 16.53 H -15.195 V 4.177 H 0 Z"
           style="fill:#878787;fill-opacity:1;fill-rule:nonzero;stroke:none"
           id="path10559" /></g><g
         id="g10561"
         transform="translate(881.4712,7.1338)"><path
           d="M 0,0 V 39.091 H 5.51 L 18.037,19.313 c 2.9,-4.582 5.162,-8.7 7.018,-12.701 l 0.116,0.058 c -0.464,5.22 -0.58,9.976 -0.58,16.065 v 16.356 h 4.756 V 0 H 24.243 L 11.831,19.836 C 9.105,24.186 6.495,28.651 4.523,32.885 L 4.35,32.827 C 4.64,27.897 4.756,23.199 4.756,16.703 V 0 Z"
           style="fill:#878787;fill-opacity:1;fill-rule:nonzero;stroke:none"
           id="path10563" /></g><g
         id="g10565"
         transform="translate(946.9517,8.4102)"><path
           d="m 0,0 c -1.856,-0.929 -5.568,-1.856 -10.324,-1.856 -11.02,0 -19.314,6.96 -19.314,19.777 0,12.238 8.294,20.532 20.416,20.532 4.871,0 7.946,-1.044 9.28,-1.74 L -1.16,32.595 c -1.914,0.927 -4.64,1.624 -7.888,1.624 -9.164,0 -15.254,-5.858 -15.254,-16.124 0,-9.57 5.51,-15.717 15.022,-15.717 3.074,0 6.206,0.638 8.236,1.624 z"
           style="fill:#878787;fill-opacity:1;fill-rule:nonzero;stroke:none"
           id="path10567" /></g><g
         id="g10569"
         transform="translate(973.5151,25.4609)"><path
           d="M 0,0 H -15.195 V -14.093 H 1.74 v -4.234 H -20.241 V 20.764 H 0.87 V 16.53 H -15.195 V 4.177 H 0 Z"
           style="fill:#878787;fill-opacity:1;fill-rule:nonzero;stroke:none"
           id="path10571" /></g><g
         id="g10573"
         transform="translate(1013.2446,23.373)"><path
           d="m 0,0 -3.828,11.252 c -0.87,2.552 -1.45,4.872 -2.03,7.134 h -0.117 c -0.58,-2.32 -1.217,-4.698 -1.971,-7.075 L -11.774,0 Z m -12.818,-3.943 -4.06,-12.296 h -5.22 l 13.282,39.091 h 6.089 l 13.34,-39.091 H 5.22 L 1.044,-3.943 Z"
           style="fill:#878787;fill-opacity:1;fill-rule:nonzero;stroke:none"
           id="path10575" /></g><g
         id="g10577"
         transform="translate(1034.647,27.8975)"><path
           d="m 0,0 h 5.161 c 5.395,0 8.817,2.958 8.817,7.424 0,5.046 -3.655,7.25 -8.991,7.307 C 2.552,14.731 0.812,14.5 0,14.268 Z m -5.046,17.806 c 2.552,0.521 6.205,0.811 9.686,0.811 5.393,0 8.874,-0.985 11.309,-3.189 1.972,-1.74 3.074,-4.408 3.074,-7.424 0,-5.162 -3.248,-8.584 -7.366,-9.976 v -0.174 c 3.017,-1.044 4.815,-3.828 5.742,-7.888 1.276,-5.451 2.205,-9.222 3.016,-10.73 h -5.22 c -0.637,1.102 -1.507,4.466 -2.61,9.338 -1.159,5.394 -3.247,7.424 -7.829,7.598 H 0 v -16.936 h -5.046 z"
           style="fill:#878787;fill-opacity:1;fill-rule:nonzero;stroke:none"
           id="path10579" /></g><g
         id="g10581"
         transform="translate(1068.7505,41.9326)"><path
           d="M 0,0 H -11.89 V 4.292 H 17.052 V 0 H 5.104 V -34.799 H 0 Z"
           style="fill:#878787;fill-opacity:1;fill-rule:nonzero;stroke:none"
           id="path10583" /></g><path
         d="m 1095.198,7.134 h -5.046 v 39.091 h 5.046 z"
         style="fill:#878787;fill-opacity:1;fill-rule:nonzero;stroke:none"
         id="path10585" /><g
         id="g10587"
         transform="translate(1104.0142,46.2246)"><path
           d="M 0,0 H 21.053 V -4.233 H 5.046 v -12.993 h 14.789 v -4.175 H 5.046 v -17.69 H 0 Z"
           style="fill:#878787;fill-opacity:1;fill-rule:nonzero;stroke:none"
           id="path10589" /></g><path
         d="m 1137.306,7.134 h -5.046 v 39.091 h 5.046 z"
         style="fill:#878787;fill-opacity:1;fill-rule:nonzero;stroke:none"
         id="path10591" /><g
         id="g10593"
         transform="translate(1173.4399,8.4102)"><path
           d="m 0,0 c -1.856,-0.929 -5.568,-1.856 -10.324,-1.856 -11.02,0 -19.314,6.96 -19.314,19.777 0,12.238 8.294,20.532 20.416,20.532 4.871,0 7.946,-1.044 9.28,-1.74 L -1.16,32.595 c -1.914,0.927 -4.64,1.624 -7.888,1.624 -9.164,0 -15.254,-5.858 -15.254,-16.124 0,-9.57 5.51,-15.717 15.022,-15.717 3.074,0 6.206,0.638 8.236,1.624 z"
           style="fill:#878787;fill-opacity:1;fill-rule:nonzero;stroke:none"
           id="path10595" /></g><path
         d="m 1184.808,7.134 h -5.046 v 39.091 h 5.046 z"
         style="fill:#878787;fill-opacity:1;fill-rule:nonzero;stroke:none"
         id="path10597" /><g
         id="g10599"
         transform="translate(1213.8657,25.4609)"><path
           d="M 0,0 H -15.195 V -14.093 H 1.74 v -4.234 H -20.241 V 20.764 H 0.87 V 16.53 H -15.195 V 4.177 H 0 Z"
           style="fill:#878787;fill-opacity:1;fill-rule:nonzero;stroke:none"
           id="path10601" /></g><g
         id="g10603"
         transform="translate(1222.1597,46.2246)"><path
           d="m 0,0 h 5.046 v -34.856 h 16.703 v -4.235 H 0 Z"
           style="fill:#878787;fill-opacity:1;fill-rule:nonzero;stroke:none"
           id="path10605" /></g><g
         id="g10607"
         transform="translate(1249.5347,46.2246)"><path
           d="m 0,0 h 5.046 v -34.856 h 16.703 v -4.235 H 0 Z"
           style="fill:#878787;fill-opacity:1;fill-rule:nonzero;stroke:none"
           id="path10609" /></g><g
         id="g10611"
         transform="translate(1297.1509,25.4609)"><path
           d="M 0,0 H -15.195 V -14.093 H 1.74 v -4.234 H -20.241 V 20.764 H 0.87 V 16.53 H -15.195 V 4.177 H 0 Z"
           style="fill:#878787;fill-opacity:1;fill-rule:nonzero;stroke:none"
           id="path10613" /></g></g></g><g
     id="g21242"
     transform="matrix(0.80849132,0,0,0.80849132,0,0.60740276)">
	<polyline
   fill="#a5bee0"
   points="78.9,52.7 80.3,76.3 154.2,109.5 143.6,44.6 76,0 77.1,19.7 134.6,54.6 139,83.5 78.9,52.7  "
   id="polyline21234" />
	<path
   fill="#024887"
   d="M 17.2,59.5 77.2,19.7 134.7,54.5 108,67.7 78.9,52.7 15.7,88.3 17.2,59.5 M 0,143.6 13.5,138 15,109.5 80.4,76.3 154.3,109.5 90.6,132.1 92,156 78.2,160 Z"
   id="path21236" />
	<path
   fill="#024887"
   d="m 446.6,39.2 v -19 h -9.4 v 48.3 h 9.4 V 46.9 H 464 v 21.6 h 9.4 V 20.1 H 464 v 19 H 446.6 M 429.1,21.7 c -3.3,-1.8 -7,-2.8 -10.8,-2.8 -14.2,0 -23.9,12.1 -23.9,25.8 0,13.3 10.1,25.1 23.7,25.1 3.9,0 7.4,-1.2 11,-2.9 V 55.7 c -2.6,3 -6.7,5.1 -10.7,5.1 -8.8,0 -14.2,-8.1 -14.2,-16.3 0,-8.3 5.2,-16.7 14.2,-16.7 4,0 8,1.9 10.6,5.1 V 21.7 Z m -39.7,6.6 v -8.2 h -25 v 48.3 h 25 v -8.2 h -15.6 v -13 h 15 V 39 h -15 V 28.3 Z m -39.4,0 h 9.7 v -8.2 h -28.9 v 8.2 h 9.7 v 40.1 h 9.4 V 28.3 Z m -45.8,18 v 22.2 h 9.4 V 46.3 l 15.3,-26.2 h -11 l -9.2,16.8 -8.5,-16.8 h -11 z M 280.9,20.1 h -9.4 v 48.3 h 22.8 V 60.2 H 281 V 20.1 Z m -40,8.1 c 8.3,0 14.2,7.9 14.2,15.7 0,7.3 -6.2,16.6 -14.2,16.6 -8,0 -14.2,-9.3 -14.2,-16.6 0.1,-7.9 6,-15.7 14.2,-15.7 z m 0,41.6 c 14.1,0 23.9,-11.7 23.9,-25.5 0,-13.5 -9.8,-25.4 -23.9,-25.4 -14.1,0 -23.9,11.9 -23.9,25.4 0,13.8 9.8,25.5 23.9,25.5 z M 193.3,28 h 1.7 c 5.3,0 8.8,0.9 8.8,7.1 0,6.3 -3,7.5 -8.6,7.5 h -1.9 z m 0,22.4 h 4.7 c 9.9,0 15.5,-5 15.5,-15.3 0,-11 -6.6,-15 -16.7,-15 H 184 v 48.3 h 9.4 v -18 z"
   id="path21238" />
	<path
   fill="#024887"
   d="m 472.6,95.1 c -4.2,-4.5 -12.6,-7.4 -18.7,-7.4 -11.5,0 -19.9,8.9 -19.9,19.9 0,10.3 6.4,14.6 15.2,18.1 5.3,2 11.9,4 11.9,10.8 0,5.1 -3.4,9.6 -8.8,9.6 -5.7,0 -10.5,-4.6 -12.3,-9.7 l -8.6,8.2 c 4.7,7.7 11.6,12.9 21,12.9 14,0 22.5,-9.4 22.5,-22.7 0,-22.3 -27.1,-17.6 -27.1,-28.8 0,-4.3 4.1,-7.5 8.3,-7.5 4.4,0 7.7,2.1 10.2,5.5 l 6.3,-8.9 M 354.7,155.8 H 368 v -45.1 h 0.2 l 36,46.4 h 9.6 V 89.4 H 400.5 V 134 h -0.2 l -36,-46.4 h -9.6 z m -52.1,-55.4 c 11.7,0 20,10.8 20,21.6 0,10 -8.7,22.8 -20,22.8 -11.3,0 -20,-12.8 -20,-22.8 0,-10.7 8.3,-21.6 20,-21.6 z m 0,57.1 c 19.9,0 33.8,-16 33.8,-35 0,-18.6 -13.9,-34.9 -33.8,-34.9 -19.9,0 -33.8,16.3 -33.8,34.9 0,19 13.8,35 33.8,35 z m -60.9,-1.7 h 13.4 L 244.9,87.7 h -9.6 l -16.1,43.7 -16.9,-43.7 h -9.4 l -11.5,68.1 h 13.4 l 6.1,-41.2 h 0.2 l 15,42.1 h 4.6 l 15.5,-42.1 h 0.2 z"
   id="path21240" />
</g></svg>
